<svg width="131" height="43" viewBox="0 0 131 43" fill="none" xmlns="http://www.w3.org/2000/svg">
<path d="M75.0363 31V13.72H78.3003V27.952H85.7403V31H75.0363ZM88.0206 16.24V13.36H91.2846V16.24H88.0206ZM88.0206 31V18.04H91.2846V31H88.0206ZM103.714 31V24.88C103.714 24.584 103.698 24.208 103.666 23.752C103.634 23.288 103.534 22.824 103.366 22.36C103.198 21.896 102.922 21.508 102.538 21.196C102.162 20.884 101.626 20.728 100.93 20.728C100.65 20.728 100.35 20.772 100.03 20.86C99.7102 20.948 99.4102 21.12 99.1302 21.376C98.8502 21.624 98.6182 21.992 98.4342 22.48C98.2582 22.968 98.1702 23.616 98.1702 24.424L96.2982 23.536C96.2982 22.512 96.5062 21.552 96.9222 20.656C97.3382 19.76 97.9622 19.036 98.7942 18.484C99.6342 17.932 100.69 17.656 101.962 17.656C102.978 17.656 103.806 17.828 104.446 18.172C105.086 18.516 105.582 18.952 105.934 19.48C106.294 20.008 106.55 20.56 106.702 21.136C106.854 21.704 106.946 22.224 106.978 22.696C107.01 23.168 107.026 23.512 107.026 23.728V31H103.714ZM94.8582 31V18.04H97.7622V22.336H98.1702V31H94.8582ZM110.116 31L110.14 13.72H113.452V24.28L117.844 18.04H121.876L117.196 24.52L122.188 31H117.94L113.452 24.76V31H110.116Z" fill="white"/>
<rect y="1" width="68.0388" height="40" fill="#3E41FF"/>
<path d="M21.1824 29H11.1042V24.8047H12.9324V14.4805H11.1511V10.332H21.1355C22.6667 10.332 24.0222 10.5 25.2019 10.8359C26.3894 11.1641 27.3191 11.7188 27.991 12.5C28.6707 13.2812 29.0105 14.3555 29.0105 15.7227C29.0105 18.1133 28.3621 19.832 27.0652 20.8789C25.7683 21.9258 23.823 22.4492 21.2292 22.4492C20.5652 22.4492 19.9832 22.4102 19.4832 22.332V24.8047H21.1824V29ZM19.5066 14.4805V18.6289H19.9871C21.7605 18.6289 22.6472 17.8477 22.6472 16.2852C22.6472 15.707 22.4519 15.2617 22.0613 14.9492C21.6707 14.6367 21.1472 14.4805 20.491 14.4805H19.5066ZM39.6042 29H30.6042V25.4727H32.116V20.0703H30.6042V16.9062L37.7292 16.2031V18.2422C37.9792 17.8516 38.3464 17.5039 38.8308 17.1992C39.3152 16.8867 39.8308 16.6445 40.3777 16.4727C40.9324 16.293 41.4285 16.2031 41.866 16.2031V21.1719C40.9519 20.8672 40.198 20.7148 39.6042 20.7148C38.8542 20.7148 38.3542 20.9336 38.1042 21.3711C37.8542 21.8008 37.7292 22.3672 37.7292 23.0703V25.4727H39.6042V29ZM50.4089 29.2109C48.9871 29.2109 47.7488 28.9492 46.6941 28.4258C45.6238 27.9102 44.7917 27.1523 44.198 26.1523C43.6042 25.1523 43.3074 23.9648 43.3074 22.5898C43.3074 21.2227 43.6042 20.0625 44.198 19.1094C44.7917 18.1484 45.6238 17.4258 46.6941 16.9414C47.7644 16.4492 49.0027 16.2031 50.4089 16.2031C51.8542 16.2031 53.1082 16.4531 54.1707 16.9531C55.241 17.4531 56.0691 18.1797 56.655 19.1328C57.241 20.0781 57.5339 21.2305 57.5339 22.5898C57.5339 23.9648 57.241 25.1523 56.655 26.1523C56.0613 27.1523 55.2253 27.9141 54.1472 28.4375C53.0769 28.9531 51.8308 29.2109 50.4089 29.2109ZM50.4089 25.7891C50.9246 25.7891 51.3074 25.5352 51.5574 25.0273C51.7996 24.5352 51.9207 23.7227 51.9207 22.5898C51.9207 21.5508 51.7996 20.8008 51.5574 20.3398C51.323 19.8711 50.9402 19.6367 50.4089 19.6367C49.9011 19.6367 49.5261 19.8711 49.2839 20.3398C49.0417 20.8008 48.9207 21.5508 48.9207 22.5898C48.9207 23.6992 49.0457 24.5117 49.2957 25.0273C49.5457 25.5352 49.9167 25.7891 50.4089 25.7891Z" fill="white"/>
</svg>
