<svg width="129" height="43" viewBox="0 0 129 43" fill="none" xmlns="http://www.w3.org/2000/svg">
<path d="M73.92 31V13.72H77.184V27.952H84.624V31H73.92ZM91.4884 31.384C90.4724 31.384 89.6444 31.212 89.0044 30.868C88.3644 30.524 87.8644 30.088 87.5044 29.56C87.1524 29.032 86.9004 28.484 86.7484 27.916C86.5964 27.34 86.5044 26.816 86.4724 26.344C86.4404 25.872 86.4244 25.528 86.4244 25.312V18.04H89.7364V24.16C89.7364 24.456 89.7524 24.836 89.7844 25.3C89.8164 25.756 89.9164 26.216 90.0844 26.68C90.2524 27.144 90.5244 27.532 90.9004 27.844C91.2844 28.156 91.8244 28.312 92.5204 28.312C92.8004 28.312 93.1004 28.268 93.4204 28.18C93.7404 28.092 94.0404 27.924 94.3204 27.676C94.6004 27.42 94.8284 27.048 95.0044 26.56C95.1884 26.064 95.2804 25.416 95.2804 24.616L97.1524 25.504C97.1524 26.528 96.9444 27.488 96.5284 28.384C96.1124 29.28 95.4844 30.004 94.6444 30.556C93.8124 31.108 92.7604 31.384 91.4884 31.384ZM95.6884 31V26.704H95.2804V18.04H98.5684V31H95.6884ZM106.986 31.36C105.354 31.36 104.034 30.992 103.026 30.256C102.026 29.512 101.418 28.464 101.202 27.112L104.538 26.608C104.674 27.216 104.974 27.692 105.438 28.036C105.91 28.38 106.506 28.552 107.226 28.552C107.818 28.552 108.274 28.44 108.594 28.216C108.914 27.984 109.074 27.664 109.074 27.256C109.074 27 109.01 26.796 108.882 26.644C108.754 26.484 108.466 26.328 108.018 26.176C107.578 26.024 106.89 25.824 105.954 25.576C104.898 25.304 104.054 25 103.422 24.664C102.79 24.328 102.334 23.928 102.054 23.464C101.774 22.992 101.634 22.424 101.634 21.76C101.634 20.928 101.846 20.208 102.27 19.6C102.694 18.984 103.29 18.512 104.058 18.184C104.834 17.848 105.746 17.68 106.794 17.68C107.81 17.68 108.71 17.836 109.494 18.148C110.278 18.46 110.91 18.904 111.39 19.48C111.878 20.056 112.178 20.736 112.29 21.52L108.954 22.12C108.898 21.64 108.69 21.26 108.33 20.98C107.97 20.7 107.482 20.536 106.866 20.488C106.266 20.448 105.782 20.528 105.414 20.728C105.054 20.928 104.874 21.216 104.874 21.592C104.874 21.816 104.95 22.004 105.102 22.156C105.262 22.308 105.586 22.464 106.074 22.624C106.57 22.784 107.322 22.992 108.33 23.248C109.314 23.504 110.102 23.804 110.694 24.148C111.294 24.484 111.73 24.892 112.002 25.372C112.274 25.844 112.41 26.416 112.41 27.088C112.41 28.416 111.93 29.46 110.97 30.22C110.01 30.98 108.682 31.36 106.986 31.36ZM123.879 31V24.88C123.879 24.584 123.863 24.208 123.831 23.752C123.799 23.288 123.699 22.824 123.531 22.36C123.363 21.896 123.087 21.508 122.703 21.196C122.327 20.884 121.791 20.728 121.095 20.728C120.815 20.728 120.515 20.772 120.195 20.86C119.875 20.948 119.575 21.12 119.295 21.376C119.015 21.624 118.783 21.992 118.599 22.48C118.423 22.968 118.335 23.616 118.335 24.424L116.463 23.536C116.463 22.512 116.671 21.552 117.087 20.656C117.503 19.76 118.127 19.036 118.959 18.484C119.799 17.932 120.855 17.656 122.127 17.656C123.143 17.656 123.971 17.828 124.611 18.172C125.251 18.516 125.747 18.952 126.099 19.48C126.459 20.008 126.715 20.56 126.867 21.136C127.019 21.704 127.111 22.224 127.143 22.696C127.175 23.168 127.191 23.512 127.191 23.728V31H123.879ZM115.023 31V13.72H117.927V22.6H118.335V31H115.023Z" fill="#090D1E"/>
<rect y="1" width="67" height="40" fill="#3E41FF"/>
<path d="M21.25 29H10.7383V24.875H13V14.4805H11.0547V10.332H20.582C22.1289 10.332 23.4492 10.457 24.543 10.707C25.6133 10.9648 26.4648 11.457 27.0977 12.1836C27.7305 12.9023 28.0469 13.9219 28.0469 15.2422C28.0469 16.1719 27.7773 16.9805 27.2383 17.668C26.6992 18.3555 26.0156 18.8516 25.1875 19.1562C26.2734 19.625 27.0742 20.2305 27.5898 20.9727C28.1133 21.7148 28.375 22.7344 28.375 24.0312C28.375 25.6172 27.7539 26.8438 26.5117 27.7109C25.2773 28.5703 23.5234 29 21.25 29ZM19 14.4805V17.8672H19.6445C20.5352 17.8672 21.1914 17.7422 21.6133 17.4922C22.043 17.2422 22.2578 16.7734 22.2578 16.0859C22.2578 15.6094 22.1094 15.2227 21.8125 14.9258C21.5156 14.6289 21.1289 14.4805 20.6523 14.4805H19ZM19 20.9375V24.875H19.4219C20.3672 24.875 21.0938 24.7422 21.6016 24.4766C22.1172 24.2109 22.375 23.6641 22.375 22.8359C22.375 21.5547 21.5938 20.9141 20.0312 20.9141C19.8594 20.9141 19.6875 20.918 19.5156 20.9258C19.3438 20.9258 19.1719 20.9297 19 20.9375ZM37.5977 29.2109C36.1445 29.2109 34.8828 28.9414 33.8125 28.4023C32.7344 27.8711 31.9062 27.1094 31.3281 26.1172C30.7578 25.125 30.4727 23.9648 30.4727 22.6367C30.4727 21.3242 30.7539 20.1836 31.3164 19.2148C31.8711 18.2539 32.6562 17.5117 33.6719 16.9883C34.6875 16.4648 35.8789 16.2031 37.2461 16.2031C38.5039 16.2031 39.6133 16.4492 40.5742 16.9414C41.5352 17.4414 42.2773 18.1484 42.8008 19.0625C43.332 19.9766 43.5977 21.043 43.5977 22.2617C43.5977 22.6836 43.5352 23.082 43.4102 23.457H36.1094C36.1094 24.1914 36.3867 24.7812 36.9414 25.2266C37.4961 25.6641 38.1641 25.8828 38.9453 25.8828C39.5391 25.8828 40.1914 25.7812 40.9023 25.5781C41.6133 25.3672 42.3281 25.043 43.0469 24.6055L43.2461 24.6758V27.8281C42.4414 28.2891 41.6133 28.6367 40.7617 28.8711C39.918 29.0977 38.8633 29.2109 37.5977 29.2109ZM36.1094 21.0547V21.3945H39.1094V21.1484C39.1094 20.5938 38.9805 20.1172 38.7227 19.7188C38.4727 19.3125 38.0977 19.1094 37.5977 19.1094C37.1836 19.1094 36.832 19.3164 36.543 19.7305C36.2539 20.1367 36.1094 20.5781 36.1094 21.0547ZM54.4258 29H45.4258V25.4727H46.9375V20.0703H45.4258V16.9062L52.5508 16.2031V18.2422C52.8008 17.8516 53.168 17.5039 53.6523 17.1992C54.1367 16.8867 54.6523 16.6445 55.1992 16.4727C55.7539 16.293 56.25 16.2031 56.6875 16.2031V21.1719C55.7734 20.8672 55.0195 20.7148 54.4258 20.7148C53.6758 20.7148 53.1758 20.9336 52.9258 21.3711C52.6758 21.8008 52.5508 22.3672 52.5508 23.0703V25.4727H54.4258V29Z" fill="white"/>
</svg>
