<svg width="24" height="24" viewBox="0 0 24 24" fill="none" xmlns="http://www.w3.org/2000/svg">
<g id="shield (2) 1">
<path id="Vector" d="M22.4564 5.21949C22.4459 5.05187 22.3795 4.89262 22.2677 4.76726C22.1559 4.6419 22.0053 4.55768 21.84 4.52809C17.8073 3.80528 16.1105 3.23996 12.4687 1.60121C12.105 1.46574 11.8795 1.46809 11.5312 1.60121C7.88953 3.24184 6.19265 3.80434 2.16 4.52809C1.99468 4.55768 1.84407 4.6419 1.7323 4.76726C1.62054 4.89262 1.55409 5.05187 1.54359 5.21949C1.36312 8.08356 1.74703 10.7507 2.68547 13.1484C3.45282 15.1035 4.58963 16.8925 6.03375 18.4176C8.12765 20.6409 10.4494 21.9389 11.6466 22.4301C11.8736 22.5227 12.1278 22.5227 12.3548 22.4301C13.6205 21.9182 15.8559 20.6573 17.9662 18.4167C19.4103 16.8919 20.5471 15.1032 21.3145 13.1484C22.253 10.7512 22.6369 8.08356 22.4564 5.21949Z" fill="#3E41FF"/>
</g>
</svg>
