<svg width="24" height="24" viewBox="0 0 24 24" fill="none" xmlns="http://www.w3.org/2000/svg">
<g id="subway 1">
<path id="Vector" d="M16.5 0.75H7.5C6.70462 0.750869 5.94206 1.06722 5.37964 1.62964C4.81722 2.19206 4.50087 2.95462 4.5 3.75V15.75C4.50087 16.5454 4.81722 17.3079 5.37964 17.8704C5.94206 18.4328 6.70462 18.7491 7.5 18.75H16.5C17.2954 18.7491 18.0579 18.4328 18.6204 17.8704C19.1828 17.3079 19.4991 16.5454 19.5 15.75V3.75C19.4991 2.95462 19.1828 2.19206 18.6204 1.62964C18.0579 1.06722 17.2954 0.750869 16.5 0.75ZM9.75 3H14.25C14.4489 3 14.6397 3.07902 14.7803 3.21967C14.921 3.36032 15 3.55109 15 3.75C15 3.94891 14.921 4.13968 14.7803 4.28033C14.6397 4.42098 14.4489 4.5 14.25 4.5H9.75C9.55109 4.5 9.36032 4.42098 9.21967 4.28033C9.07902 4.13968 9 3.94891 9 3.75C9 3.55109 9.07902 3.36032 9.21967 3.21967C9.36032 3.07902 9.55109 3 9.75 3ZM8.25 16.5C7.95333 16.5 7.66332 16.412 7.41664 16.2472C7.16997 16.0824 6.97771 15.8481 6.86418 15.574C6.75065 15.2999 6.72094 14.9983 6.77882 14.7074C6.8367 14.4164 6.97956 14.1491 7.18934 13.9393C7.39912 13.7296 7.66639 13.5867 7.95736 13.5288C8.24834 13.4709 8.54994 13.5006 8.82403 13.6142C9.09811 13.7277 9.33238 13.92 9.4972 14.1666C9.66203 14.4133 9.75 14.7033 9.75 15C9.75 15.3978 9.59196 15.7794 9.31066 16.0607C9.02936 16.342 8.64782 16.5 8.25 16.5ZM15.75 16.5C15.4533 16.5 15.1633 16.412 14.9166 16.2472C14.67 16.0824 14.4777 15.8481 14.3642 15.574C14.2506 15.2999 14.2209 14.9983 14.2788 14.7074C14.3367 14.4164 14.4796 14.1491 14.6893 13.9393C14.8991 13.7296 15.1664 13.5867 15.4574 13.5288C15.7483 13.4709 16.0499 13.5006 16.324 13.6142C16.5981 13.7277 16.8324 13.92 16.9972 14.1666C17.162 14.4133 17.25 14.7033 17.25 15C17.25 15.3978 17.092 15.7794 16.8107 16.0607C16.5294 16.342 16.1478 16.5 15.75 16.5ZM18 9C18 9.19891 17.921 9.38968 17.7803 9.53033C17.6397 9.67098 17.4489 9.75 17.25 9.75H6.75C6.55109 9.75 6.36032 9.67098 6.21967 9.53033C6.07902 9.38968 6 9.19891 6 9V7.5C6 7.30109 6.07902 7.11032 6.21967 6.96967C6.36032 6.82902 6.55109 6.75 6.75 6.75H17.25C17.4489 6.75 17.6397 6.82902 17.7803 6.96967C17.921 7.11032 18 7.30109 18 7.5V9ZM16.2802 19.7198C16.1384 19.5851 15.9495 19.5111 15.754 19.5136C15.5584 19.5161 15.3715 19.5949 15.2332 19.7332C15.0949 19.8715 15.0161 20.0584 15.0136 20.254C15.0111 20.4495 15.0851 20.6384 15.2198 20.7802L15.4392 21H8.56078L8.78016 20.7802C8.91487 20.6384 8.98886 20.4495 8.98636 20.254C8.98386 20.0584 8.90505 19.8715 8.76675 19.7332C8.62845 19.5949 8.4416 19.5161 8.24602 19.5136C8.05045 19.5111 7.86164 19.5851 7.71984 19.7198L5.46984 21.9698C5.39727 22.0388 5.33923 22.1216 5.29915 22.2133C5.25907 22.305 5.23777 22.4039 5.23648 22.504C5.2352 22.6041 5.25397 22.7034 5.29169 22.7961C5.32941 22.8889 5.38531 22.9731 5.45609 23.0439C5.52688 23.1147 5.61112 23.1706 5.70385 23.2083C5.79658 23.246 5.89592 23.2648 5.99602 23.2635C6.09612 23.2622 6.19495 23.2409 6.28669 23.2008C6.37842 23.1608 6.4612 23.1027 6.53016 23.0302L7.06078 22.5H16.9392L17.4698 23.0302C17.6116 23.1649 17.8005 23.2389 17.996 23.2364C18.1916 23.2339 18.3785 23.1551 18.5168 23.0168C18.6551 22.8785 18.7339 22.6916 18.7364 22.496C18.7389 22.3005 18.6649 22.1116 18.5302 21.9698L16.2802 19.7198Z" fill="#3E41FF"/>
</g>
</svg>
